<svg width="55" height="55" viewBox="0 0 55 55" fill="none" xmlns="http://www.w3.org/2000/svg">
<path fill-rule="evenodd" clip-rule="evenodd" d="M42.5806 15.0806C42.5806 18.8158 41.2227 22.2338 38.9737 24.8679C39.2864 24.8485 39.6017 24.8387 39.9194 24.8387C48.2482 24.8387 55 31.5905 55 39.9193C55 48.2481 48.2482 55 39.9194 55C34.7684 55 30.2205 52.4175 27.5 48.4766C24.7795 52.4175 20.2316 55 15.0806 55C6.75183 55 0 48.2481 0 39.9193C0 31.5905 6.75183 24.8387 15.0806 24.8387C15.3983 24.8387 15.7136 24.8485 16.0263 24.8679C13.7773 22.2338 12.4193 18.8158 12.4193 15.0806C12.4193 6.75183 19.1712 0 27.5 0C35.8288 0 42.5806 6.75183 42.5806 15.0806Z" fill="#FFE600"/>
</svg>
